<?xml version="1.0" encoding="UTF-8" standalone="no"?>
<svg
   id="Layer_1"
   data-name="Layer 1"
   viewBox="0 0 407 407"
   version="1.1"
   sodipodi:docname="QEP_Logo.svg"
   inkscape:version="1.2 (dc2aedaf03, 2022-05-15)"
   xmlns:inkscape="http://www.inkscape.org/namespaces/inkscape"
   xmlns:sodipodi="http://sodipodi.sourceforge.net/DTD/sodipodi-0.dtd"
   xmlns="http://www.w3.org/2000/svg"
   xmlns:svg="http://www.w3.org/2000/svg">
  <sodipodi:namedview
     id="namedview73"
     pagecolor="#ffffff"
     bordercolor="#000000"
     borderopacity="0.25"
     inkscape:showpageshadow="2"
     inkscape:pageopacity="0.0"
     inkscape:pagecheckerboard="0"
     inkscape:deskcolor="#d1d1d1"
     showgrid="false"
     inkscape:zoom="0.60810811"
     inkscape:cx="319.84444"
     inkscape:cy="357.66667"
     inkscape:window-width="1280"
     inkscape:window-height="650"
     inkscape:window-x="-6"
     inkscape:window-y="-6"
     inkscape:window-maximized="1"
     inkscape:current-layer="Layer_1" />
  <defs
     id="defs4">
    <style
       id="style2">.cls-1{fill:#fefefe;}.cls-2{fill:#010101;}.cls-3{fill:#4e7289;}.cls-4{fill:#4e7389;}.cls-5{fill:#54778d;}.cls-6{fill:#56798f;}.cls-7{fill:#587a90;}.cls-8{fill:#53778d;}.cls-9{fill:#50758b;}.cls-10{fill:#57798f;}.cls-11{fill:#4e738a;}.cls-12{fill:#5a7c91;}.cls-13{fill:#5f8094;}.cls-14{fill:#51758c;}.cls-15{fill:#4f738a;}.cls-16{fill:#597b91;}.cls-17{fill:#fdfdfd;}.cls-18{fill:#fafbfc;}.cls-19{fill:#f6f8f9;}.cls-20{fill:#fafbfb;}.cls-21{fill:#f8f9fa;}.cls-22{fill:#f2f4f6;}</style>
  </defs>
  <path
     class="cls-1"
     d="m 228,49.71 c -1.81314,-0.527818 -3.59019,-1.1725 -5.32,-1.93 -13.99347,-7.166265 -29.23259,-11.579465 -44.89,-13 -36.14,-3.19 -68.28,6.65 -96.09,30.15 -49.9,42.18 -56.39,118.18 -14.33,168.15 0.82047,0.8564 1.699237,1.65497 2.63,2.39 -0.590641,0.91633 -1.259827,1.77958 -2,2.58 -3.7,3.45 -7.48,6.82 -11.22,10.23 -5,4.59 -10,9.19 -15.6,14.31 1.83,0.08 2.9,0.17 4,0.17 8,0 16,-0.54 24,0.16 8.58,0.76 15.64,-1.1 21,-8 1,0.54 2,1 2.94,1.62 37.37,24.2 77,28.43 118.65,13 6.72,-2.48 13.05,-6.06 19.56,-9.13 0.46,0 0.91,0.08 1.36,0.08 h 136.19 v -27.23 h -4.27 l -102,-0.06 c 0.72,-1 1.4,-2 2.16,-3 13.96804,-17.79415 22.60221,-39.18538 24.9,-61.69 h 47.54 V 183 L 365.82,154.57 337,125.81 v 15.46 h -47.36 c -0.2048,-0.39805 -0.36574,-0.81718 -0.48,-1.25 -3.03485,-22.40808 -12.36631,-43.494882 -26.91,-60.81 -0.4387,-0.727083 -0.7752,-1.511114 -1,-2.33 H 368.88 V 49.71 Z m -197.31,290 h 335 v -3 h -335 z m 25.08,-16.55 c 0.63,-0.84 1.26,-1.63 1.83,-2.46 3.821229,-5.17905 3.61906,-12.29621 -0.49,-17.25 -4.594006,-5.43709 -12.227462,-7.18549 -18.73,-4.29 -6.29,2.83 -9.64,8.73 -8.67,15.28 1.35,9 10.66,14.53 20,11.85 1.207073,-0.33444 2.478094,-0.36535 3.7,-0.09 1.863211,0.54233 3.693018,1.19345 5.48,1.95 l 0.44,-0.93 z m 147.55,-14.22 8,17.26 7.82,-17.43 c 1.73,6.39 3.21,11.89 4.74,17.56 l 3.67,-0.17 c -2.49,-9.32 -4.9,-18.3 -7.57,-28.28 l -8.56,19.38 -8.88,-19.45 c -2.61,9.81 -5,19 -7.53,28.37 h 3.68 c 1.4,-5.48 2.87,-10.9 4.59,-17.27 z m -79.43,-1.13 1.28,-0.81 18.51,19.89 0.68,-0.6 V 298.6 h -3.8 v 19.33 L 120.21,298 v 28.12 h 3.64 z m -40.91,-9.16 v 3.81 c 0,4.74 0.08,9.49 -0.12,14.22 -0.16,4 -2.64,6.13 -6.59,6.22 -4.41,0.1 -7,-2.42 -7.11,-7.19 -0.1,-5.62 0,-11.24 0,-17 h -3.55 c 0,6.9 -0.54,13.59 0.16,20.16 0.59,5.6 5.19,8.39 11.09,8.1 5.23,-0.25 9.44,-3.75 9.76,-9 0.4,-6.38 0.1,-12.81 0.1,-19.33 z m 104.43,-0.07 c 0,6.07 0.09,11.81 0,17.55 -0.08,3.91 -2,6.11 -5.41,6.7 -4.75,0.84 -8.2,-1.9 -8.33,-6.9 -0.14,-5.72 0,-11.46 0,-17.27 h -3.57 c 0,6.9 -0.53,13.69 0.17,20.35 0.57,5.47 5.06,8.19 10.84,8 5.15,-0.17 9.47,-3.38 9.85,-8.47 0.51,-6.59 0.13,-13.24 0.13,-19.95 z M 343.26,303 c -0.48,-1.24 -0.59,-3 -1.49,-3.63 -7.65,-5 -20.21,0.41 -22.34,9.5 -2.63,11.29 8.1,20.56 20.05,17.42 2.76,-0.73 4.22,-1.95 3.1,-5.18 -6.66,2.53 -13.09,3.09 -17.92,-3.46 -2.23228,-3.4152 -2.10464,-7.85857 0.32,-11.14 4.88,-6.07 11.1,-5.3 18.28,-3.51 z m -55.65,10 H 301 v 13.13 h 3.48 v -27.68 l -3.65,0.22 v 9.76 h -13.28 v -10 l -3.31,0.23 v 27.44 h 3.37 z M 248,302.47 h 11.38 v -3.8 h -15 v 27.38 h 15.07 v -3.92 H 248 v -9.54 h 11.66 c -0.09,-1.52 -0.15,-2.61 -0.24,-4 H 248 Z m 98.5,16.89 c 2.26,5.48 6.33,8.14 11.14,7.59 3.58583,-0.38606 6.53888,-2.99052 7.37,-6.5 0.85,-4.6 -1.31,-7.87 -7,-10.61 -1.66195,-0.69214 -3.25837,-1.53218 -4.77,-2.51 -2.21,-1.6 -1.92,-4.31 0.68,-4.84 2.42,-0.48 5.07,0.16 7.61,0.3 l 0.12,1 3.25,-2.84 c -2.53,-1.14 -4.45,-2.31 -6.54,-2.87 -4.3,-1.14 -8.91,1.09 -10.19,4.6 -1.28,3.51 0.63,7.22 5.14,9.44 1.71,0.85 3.54,1.5 5.18,2.47 2.29,1.34 3.54,3.42 2.2,6 -1.10577,2.29395 -3.91329,3.18558 -6.14,1.95 -1.82,-0.86 -3.26,-2.55 -5.17,-4.12 z m -256.42,6.45 0.68,0.93 c 1.29,-0.75 3.43,-1.26 3.73,-2.31 1.17,-4 3.75,-4.79 7.36,-4.27 1.12025,0.17006 2.25975,0.17006 3.38,0 2.87,-0.44 4.71,0.48 5.47,3.44 0.63,2.47 2.2,3.37 5,2.23 l -12.88,-28 z m 79.33,33.29 c -0.20619,8.96226 10.57388,13.64643 16.98531,7.38246 6.41143,-6.26397 1.97932,-17.15009 -6.98531,-17.15246 -5.46954,-0.0891 -9.96181,4.29986 -10,9.77 z m 109.85,-56.53 v -3.93 h -16.63 v 4 h 6.5 v 23.68 l 3.71,-0.2 v -23.55 z m -113.93,-3.85 h -16.9 c 0.07,1.35 0.11,2.44 0.18,3.82 h 6.5 V 326 h 3.83 v -23.61 h 6.39 z m -15.22,51.43 c 0,5.66 -0.05,11.26 0.09,16.86 0,0.52 1.23,1 2.66,2.1 v -8 c 1.07562,1.65484 2.24416,3.24739 3.5,4.77 1.11035,1.05577 2.29689,2.0284 3.55,2.91 l 0.77,-0.88 -4.59,-6.6 c 3.82,-2 5.27,-4.36 4.48,-7.16 -0.9,-3.15 -3.72,-4.33 -10.46,-4 z m 164.34,-24 v -27.73 l -3.47,0.2 v 27.57 z m -66.34,26.95 0.81,-0.82 c -0.66,-0.76 -1.17,-1.87 -2,-2.24 -4.19555,-1.74923 -9.04282,-0.47083 -11.83,3.12 -2.62223,3.27228 -2.78885,7.87675 -0.41,11.33 2.59588,3.88477 7.51563,5.48473 11.9,3.87 0.94,-0.37 1.52,-1.63 2.26,-2.47 l -0.69,-0.68 c -4.12,1.56 -8.09,1.8 -11.08,-2 -1.89974,-2.26366 -1.9868,-5.53861 -0.21,-7.9 2.9,-4.13 7.01,-3.7 11.25,-2.17 z m -23.67,-0.36 c 0,-2.95 -3.8,-3.69 -9.47,-2.26 v 17.63 h 9.63 c 0.0647,-0.56817 0.0647,-1.14183 0,-1.71 -2.4,-0.48 -4.82,-0.86 -7.22,-1.25 v -5.45 c 7.08,-0.53 7.08,-0.53 7,-2.9 h -7.06 v -4 z m -94.38,-2.46 c 0,5.47 0,10.75 0.05,16 0,0.65 0.75,1.29 1.15,1.94 0.47586,-0.5957 0.83851,-1.27356 1.07,-2 0.0848,-1.42541 0.0848,-2.85459 0,-4.28 6.45,-1.48 8.67,-3.56 8,-7.34 -0.52,-3.5 -3.91,-5 -10.27,-4.28 z m 130.19,3.24 c 0,3.45 -0.08,7.38 0.05,11.31 0.18458,1.17833 0.5207,2.32785 1,3.42 0.56689,-1.01419 0.97177,-2.11076 1.2,-3.25 0.14,-4 0.06,-8.06 0.06,-12 4.1,-0.45 4.1,-0.45 3.74,-2.77 H 256 c -0.78,4.19 2.87,1.56 4.25,3.33 z m -63.31,14.52 c 4.88,1.77 7.41,0.46 7.69,-3.82 0.28,-4.28 0.18,-8.36 0,-12.53 0,-0.68 -1.08,-1.32 -1.66,-2 l -0.89,0.61 v 11.47 c 0,2.33 0.27,4.73 -3.29,4.57 -0.47,0.04 -1.03,0.99 -1.85,1.74 z"
     id="path6"
     sodipodi:nodetypes="cccccccccscccccscccccccccccccccccccccccccccccccccccccccccccccccccccccccccscccccccccccccccccccccccccccccccccccccccccccccccccccccccccccccccccsccccccccccccccccsccccccccccccccccccccccccccccccccccccccccccccccccccccccccccccccccccccccccccccscccsccc" />
  <path
     class="cls-2"
     d="M90.19,254.89c-5.4,6.93-12.46,8.79-21,8-7.94-.7-16-.15-24-.16-1.07,0-2.14-.09-4-.17,5.58-5.12,10.58-9.72,15.6-14.31,3.74-3.41,7.52-6.78,11.22-10.23a18.81,18.81,0,0,0,2-2.58l14.61-12.18a16.42,16.42,0,0,0-.94-1.61c-18.07-22-26.26-47.06-23.35-75.5A96.57,96.57,0,0,1,88.12,86.91c24.85-25.3,55.31-35.93,90.5-32,30.24,3.37,54.83,17.42,73.19,41.71,16.33,21.62,22.84,46.21,19.32,73.06-3.34,25.55-15.11,46.93-34.74,63.62C211.09,254.79,181.72,262.67,149,258a103,103,0,0,1-41.5-15.65c-1.41-.9-2.46-1.14-3.84.17C99.21,246.73,94.68,250.79,90.19,254.89ZM154.66,196l-29.74,27.19c17.59,9.32,35.8,11.67,54.69,9,17.91-2.52,32.48-11.49,45-24.36,25.15-25.95,28.37-67.91,6.54-96.65-20.67-27.2-48.75-36.73-82-31.92-36.16,5.23-76.16,43.5-62.92,96.21a69.08,69.08,0,0,0,17,30.51,19.65,19.65,0,0,0,2.44-2.16c5.18-6.51,11.72-8.68,20.07-8C135,196.62,144.5,196,154.66,196Z"
     id="path8" />
  <path
     class="cls-3"
     d="M90.19,254.89c4.49-4.1,9-8.16,13.43-12.35,1.38-1.31,2.43-1.07,3.84-.17A103,103,0,0,0,149,258c32.76,4.65,62.13-3.23,87.43-24.72,19.63-16.69,31.4-38.07,34.74-63.62,3.52-26.85-3-51.44-19.32-73.06-18.36-24.29-42.95-38.34-73.19-41.71-35.19-3.93-65.65,6.7-90.5,32a96.57,96.57,0,0,0-27.79,59.27c-2.91,28.44,5.28,53.51,23.35,75.5a16.42,16.42,0,0,1,.94,1.61L70,235.47a25.7,25.7,0,0,1-2.68-2.41c-42.06-50-35.57-126,14.33-168.15,27.81-23.5,60-33.34,96.09-30.15a122.83,122.83,0,0,1,44.89,13A43.74,43.74,0,0,0,228,49.71a10.35,10.35,0,0,0,1.42,1.65c7.51,5.67,15.12,11.19,22.53,17,3.31,2.58,6.22,5.68,9.32,8.54a9.25,9.25,0,0,0,1,2.33A119.48,119.48,0,0,1,289.16,140a6.18,6.18,0,0,0,.48,1.25q0,13.6,0,27.22a119.58,119.58,0,0,1-24.9,61.69c-.76,1-1.44,2-2.16,3-5.89,5.75-11.58,11.72-17.73,17.18-4.19,3.72-9,6.71-13.55,10-6.51,3.07-12.84,6.65-19.56,9.13-41.67,15.41-81.28,11.18-118.65-13C92.19,255.9,91.17,255.43,90.19,254.89Z"
     id="path10" />
  <path
     d="M261.23,76.88c-3.1-2.86-6-6-9.32-8.54-7.41-5.79-15-11.31-22.53-17A10.35,10.35,0,0,1,228,49.71H368.88V76.88Z"
     id="path12" />
  <path
     d="M231.34,260.4c4.54-3.31,9.36-6.3,13.55-10,6.15-5.46,11.84-11.43,17.73-17.18l102,.06h4.27v27.22H232.7C232.25,260.48,231.8,260.43,231.34,260.4Z"
     id="path14" />
  <path
     d="M289.68,168.49q0-13.61,0-27.22H337V125.81l28.83,28.77L337.22,183V168.49Z"
     id="path16" />
  <path
     class="cls-4"
     d="M30.65,339.68v-3h335v3Z"
     id="path18" />
  <path
     class="cls-5"
     d="M55.73,323.13l3.56,4.06-.44.93a49.64,49.64,0,0,0-5.48-1.95,7.6,7.6,0,0,0-3.7.09c-9.34,2.68-18.65-2.8-20-11.85-1-6.55,2.38-12.45,8.67-15.28a16,16,0,0,1,18.73,4.29,14,14,0,0,1,.49,17.25C57,321.5,56.36,322.29,55.73,323.13ZM44,316l.21-.81c1.6.3,3.42.23,4.74,1s2.44,2.49,3.62,3.78c4.34-4.16,4.78-9.86,1.4-14a12.06,12.06,0,0,0-15.94-2,10.1,10.1,0,0,0-3.12,13.49,11.1,11.1,0,0,0,14.35,4.25Z"
     id="path20" />
  <path
     class="cls-6"
     d="M203.28,308.91c-1.72,6.37-3.19,11.79-4.67,17.24h-3.68c2.49-9.4,4.92-18.56,7.53-28.37l8.88,19.45,8.56-19.38c2.67,10,5.08,19,7.57,28.28l-3.67.17c-1.53-5.67-3-11.17-4.74-17.56l-7.82,17.43Z"
     id="path22" />
  <path
     class="cls-7"
     d="M123.85,307.78v18.35h-3.64V298l20.31,19.92V298.6h3.8v27.66l-.68.6L125.13,307Z"
     id="path24" />
  <path
     class="cls-7"
     d="M82.94,298.62h3.78c0,6.52.3,12.95-.1,19.33-.32,5.27-4.53,8.77-9.76,9-5.9.29-10.5-2.5-11.09-8.1-.7-6.57-.16-13.26-.16-20.16H69.1c0,5.73-.08,11.35,0,17,.1,4.77,2.7,7.29,7.11,7.19,4-.09,6.43-2.26,6.59-6.22.2-4.73.1-9.48.12-14.22C83,301.21,82.94,300,82.94,298.62Z"
     id="path26" />
  <path
     class="cls-7"
     d="M187.37,298.55h3.72c0,6.71.38,13.36-.13,19.95-.38,5.09-4.7,8.3-9.85,8.47-5.78.2-10.27-2.52-10.84-8-.7-6.66-.17-13.45-.17-20.35h3.47c0,5.81-.11,11.55,0,17.27.13,5,3.58,7.74,8.33,6.9,3.41-.59,5.33-2.79,5.41-6.7C187.46,310.36,187.37,304.62,187.37,298.55Z"
     id="path28" />
  <path
     class="cls-8"
     d="M343.26,303c-7.18-1.83-13.4-2.6-18.28,3.51a9.76,9.76,0,0,0-.32,11.14c4.83,6.55,11.26,6,17.92,3.46,1.12,3.23-.34,4.45-3.1,5.18-12,3.14-22.68-6.13-20.05-17.42,2.13-9.09,14.69-14.52,22.34-9.5C342.67,300,342.78,301.8,343.26,303Z"
     id="path30" />
  <path
     class="cls-4"
     d="M287.61,313V326.1h-3.37V298.66l3.31-.23v10h13.31v-9.76l3.65-.22v27.63H301V313Z"
     id="path32" />
  <path
     class="cls-9"
     d="M248,302.47v6.14h11.43c.09,1.37.15,2.46.24,4H248v9.54h11.45v3.92H244.35V298.67h15v3.8Z"
     id="path34" />
  <path
     class="cls-8"
     d="M346.46,319.36l2.89-1c1.91,1.57,3.35,3.26,5.17,4.12a4.43,4.43,0,0,0,6.14-1.95c1.34-2.55.09-4.63-2.2-6-1.64-1-3.47-1.62-5.18-2.47-4.51-2.22-6.46-5.82-5.14-9.44s5.89-5.74,10.19-4.6c2.09.56,4,1.73,6.54,2.87l-3.25,2.84-.12-1c-2.54-.14-5.19-.78-7.61-.3-2.6.53-2.89,3.24-.68,4.84a30.06,30.06,0,0,0,4.77,2.51c5.68,2.74,7.84,6,7,10.61a8.51,8.51,0,0,1-7.37,6.5C352.79,327.5,348.72,324.84,346.46,319.36Z"
     id="path36" />
  <path
     class="cls-8"
     d="M90.08,325.81l12.72-28,12.88,28c-2.78,1.14-4.35.24-5-2.23-.76-3-2.6-3.88-5.47-3.44a11.26,11.26,0,0,1-3.38,0c-3.61-.52-6.19.25-7.36,4.27-.3,1.05-2.44,1.56-3.73,2.31ZM107.24,316l-4.46-9.52L98.52,316Z"
     id="path38" />
  <path
     class="cls-10"
     d="M169.41,359.1A10,10,0,1,1,179.55,369,9.84,9.84,0,0,1,169.41,359.1Zm2.61.19a7.32,7.32,0,1,0,7.29-7.22A7.18,7.18,0,0,0,172,359.29Z"
     id="path40" />
  <path
     class="cls-11"
     d="M279.26,302.57h-6.42v23.51l-3.71.2V302.6h-6.5v-4h16.63Z"
     id="path42" />
  <path
     class="cls-11"
     d="M165.33,298.72v3.67h-6.39V326h-3.83V302.54h-6.5c-.07-1.38-.11-2.47-.18-3.82Z"
     id="path44" />
  <path
     class="cls-12"
     d="M150.11,350.15c6.74-.33,9.56.85,10.46,4,.79,2.8-.66,5.2-4.48,7.16l4.59,6.6-.77.88a31.23,31.23,0,0,1-3.55-2.91,52.24,52.24,0,0,1-3.5-4.77v8c-1.43-1.09-2.65-1.58-2.66-2.1C150.06,361.41,150.11,355.81,150.11,350.15Zm2.68,8.68c2.58-.18,5.3,0,5.17-3.18s-2.72-2.91-5.17-2.79Z"
     id="path46" />
  <path
     class="cls-13"
     d="M314.45,326.19H311V298.62l3.47-.2Z"
     id="path48" />
  <path
     class="cls-6"
     d="M248.11,353.14c-4.24-1.53-8.35-2-11.26,2.23a6.35,6.35,0,0,0,.21,7.9c3,3.78,7,3.54,11.08,2l.69.68c-.74.84-1.32,2.1-2.26,2.47a10.11,10.11,0,0,1-11.9-3.87,9.5,9.5,0,0,1,.41-11.33,10.07,10.07,0,0,1,11.83-3.12c.84.37,1.35,1.48,2,2.24Z"
     id="path50" />
  <path
     class="cls-4"
     d="M224.44,352.78h-7.13v4h7.06c.07,2.37.07,2.37-7,2.9v5.49c2.4.39,4.82.77,7.22,1.25a7.56,7.56,0,0,1,0,1.71H215V350.52C220.64,349.09,224.41,349.83,224.44,352.78Z"
     id="path52" />
  <path
     class="cls-14"
     d="M130.06,350.32c6.36-.72,9.75.78,10.35,4.35.64,3.78-1.58,5.86-8,7.34a36.05,36.05,0,0,1,0,4.28,6.24,6.24,0,0,1-1.07,2c-.4-.65-1.14-1.29-1.15-1.94C130,361.07,130.06,355.79,130.06,350.32Zm2.47,1.75v7.34a26.79,26.79,0,0,0,4.89-2.28,2.81,2.81,0,0,0,0-2.7A27.31,27.31,0,0,0,132.53,352.07Z"
     id="path54" />
  <path
     class="cls-15"
     d="M260.25,353.56c-1.38-1.77-5,.86-4.3-3.33H266.3c.36,2.32.36,2.32-3.74,2.77,0,4,.08,8-.06,12a11.15,11.15,0,0,1-1.16,3.25,13.84,13.84,0,0,1-1-3.42C260.17,360.94,260.25,357,260.25,353.56Z"
     id="path56" />
  <path
     class="cls-16"
     d="M196.94,368.08c.82-.75,1.38-1.7,1.9-1.68,3.56.16,3.3-2.24,3.29-4.57,0-3.82,0-7.65,0-11.47l.89-.61c.58.66,1.64,1.3,1.66,2,.14,4.17.23,8.37,0,12.53S201.82,369.85,196.94,368.08Z"
     id="path58" />
  <path
     class="cls-17"
     d="M154.66,196c-10.16,0-19.65.58-29-.17-8.35-.67-14.89,1.5-20.07,8a19.65,19.65,0,0,1-2.44,2.16,69.08,69.08,0,0,1-17-30.51c-13.24-52.71,26.76-91,62.92-96.21,33.28-4.81,61.36,4.72,82,31.92,21.83,28.74,18.61,70.7-6.54,96.65-12.48,12.87-27,21.84-45,24.36-18.89,2.65-37.1.3-54.69-9Z"
     id="path60" />
  <path
     class="cls-18"
     d="M44,316l5.26,5.69a11.1,11.1,0,0,1-14.35-4.25A10.1,10.1,0,0,1,38,303.94a12.06,12.06,0,0,1,15.94,2c3.38,4.12,2.94,9.82-1.4,14-1.18-1.29-2.17-2.93-3.62-3.78s-3.14-.7-4.74-1Z"
     id="path62" />
  <path
     class="cls-19"
     d="M107.24,316H98.52l4.26-9.52Z"
     id="path64" />
  <path
     class="cls-20"
     d="M172,359.29a7.31,7.31,0,1,1,7.54,7A7.12,7.12,0,0,1,172,359.29Z"
     id="path66" />
  <path
     class="cls-21"
     d="M152.79,358.83v-6c2.45-.12,5-.23,5.17,2.79S155.37,358.65,152.79,358.83Z"
     id="path68" />
  <path
     class="cls-22"
     d="M132.53,352.07a27.31,27.31,0,0,1,4.89,2.36,2.81,2.81,0,0,1,0,2.7,26.79,26.79,0,0,1-4.89,2.28Z"
     id="path70" />
</svg>
