<?xml version="1.0" encoding="UTF-8" standalone="no"?>
<!-- Created with Inkscape (http://www.inkscape.org/) -->

<svg
   width="87.135483mm"
   height="64.649414mm"
   viewBox="0 0 87.135483 64.649414"
   version="1.1"
   id="svg283"
   inkscape:version="1.2 (dc2aedaf03, 2022-05-15)"
   sodipodi:docname="icon.svg"
   inkscape:export-filename="icon.png"
   inkscape:export-xdpi="300"
   inkscape:export-ydpi="300"
   xmlns:inkscape="http://www.inkscape.org/namespaces/inkscape"
   xmlns:sodipodi="http://sodipodi.sourceforge.net/DTD/sodipodi-0.dtd"
   xmlns="http://www.w3.org/2000/svg"
   xmlns:svg="http://www.w3.org/2000/svg">
  <sodipodi:namedview
     id="namedview285"
     pagecolor="#ffffff"
     bordercolor="#000000"
     borderopacity="0.25"
     inkscape:showpageshadow="2"
     inkscape:pageopacity="0.0"
     inkscape:pagecheckerboard="0"
     inkscape:deskcolor="#d1d1d1"
     inkscape:document-units="mm"
     showgrid="false"
     inkscape:zoom="0.88194444"
     inkscape:cx="145.13386"
     inkscape:cy="214.86614"
     inkscape:window-width="1280"
     inkscape:window-height="650"
     inkscape:window-x="-6"
     inkscape:window-y="-6"
     inkscape:window-maximized="1"
     inkscape:current-layer="layer1" />
  <defs
     id="defs280" />
  <g
     inkscape:label="Layer 1"
     inkscape:groupmode="layer"
     id="layer1"
     transform="translate(-174.23225,-104.47527)">
    <path
       class="cls-2"
       d="m 187.62837,162.87269 c -1.42875,1.83357 -3.29671,2.32569 -5.55625,2.11667 -2.10079,-0.18521 -4.23333,-0.0397 -6.35,-0.0423 -0.2831,0 -0.56621,-0.0238 -1.05833,-0.045 1.47637,-1.35467 2.79929,-2.57175 4.1275,-3.78619 0.98954,-0.90223 1.98966,-1.79388 2.96862,-2.70669 a 4.9768124,4.9768124 0 0 0 0.52917,-0.68262 l 3.86556,-3.22263 a 4.3444583,4.3444583 0 0 0 -0.24871,-0.42598 c -4.78102,-5.82083 -6.94796,-12.45129 -6.17802,-19.97604 a 25.550812,25.550812 0 0 1 7.35277,-15.67391 c 6.5749,-6.69396 14.63411,-9.50648 23.94479,-8.46667 8.001,0.89164 14.50711,4.60904 19.36486,11.03577 4.32064,5.72029 6.04308,12.2264 5.11175,19.33046 -0.88371,6.7601 -3.99786,12.41689 -9.19163,16.83279 -6.69395,5.68589 -14.46477,7.77081 -23.12193,6.53521 a 27.252083,27.252083 0 0 1 -10.98021,-4.14073 c -0.37306,-0.23813 -0.65088,-0.30163 -1.016,0.045 -1.1774,1.11389 -2.37596,2.1881 -3.56394,3.27289 z m 17.05769,-15.58131 -7.86871,7.19402 c 4.65402,2.46592 9.47208,3.08769 14.47006,2.38125 4.73869,-0.66675 8.59367,-3.04006 11.90625,-6.44525 6.65427,-6.86594 7.50623,-17.96785 1.73038,-25.57198 -5.46894,-7.19666 -12.89844,-9.71814 -21.69584,-8.4455 -9.56733,1.38377 -20.15066,11.50938 -16.64758,25.45556 a 18.277416,18.277416 0 0 0 4.49792,8.07244 5.1990624,5.1990624 0 0 0 0.64558,-0.5715 c 1.37054,-1.72244 3.10092,-2.29658 5.31019,-2.11666 2.45004,0.21166 4.96358,0.0476 7.65175,0.0476 z"
       id="path8"
       style="fill:#010101;stroke-width:0.264583" />
    <path
       class="cls-3"
       d="m 187.62837,162.87269 c 1.18798,-1.08479 2.38125,-2.159 3.55335,-3.2676 0.36513,-0.34661 0.64294,-0.28311 1.016,-0.045 a 27.252083,27.252083 0 0 0 10.9908,4.13544 c 8.66775,1.23031 16.43856,-0.85461 23.13252,-6.5405 5.19377,-4.4159 8.30791,-10.07269 9.19162,-16.83279 0.93133,-7.10407 -0.79375,-13.61017 -5.11175,-19.33046 -4.85775,-6.42673 -11.36385,-10.14413 -19.36485,-11.03577 -9.31069,-1.03982 -17.3699,1.77271 -23.94479,8.46666 a 25.550812,25.550812 0 0 0 -7.35277,15.68186 c -0.76994,7.52475 1.397,14.15785 6.17802,19.97604 a 4.3444583,4.3444583 0 0 1 0.2487,0.42598 l -3.87879,3.22791 a 6.7997916,6.7997916 0 0 1 -0.70908,-0.63764 c -11.12838,-13.22917 -9.41123,-33.3375 3.79148,-44.48969 7.35806,-6.21771 15.875,-8.82121 25.42381,-7.97719 a 32.49877,32.49877 0 0 1 11.87715,3.43959 11.572875,11.572875 0 0 0 1.42081,0.51594 2.7384375,2.7384375 0 0 0 0.37571,0.43656 c 1.98702,1.50019 4.0005,2.96069 5.96106,4.49791 0.87577,0.68263 1.64571,1.50284 2.46592,2.25955 a 2.4473958,2.4473958 0 0 0 0.26458,0.61648 31.612416,31.612416 0 0 1 7.11465,16.07872 1.635125,1.635125 0 0 0 0.127,0.33073 q 0,3.59834 0,7.20196 a 31.638875,31.638875 0 0 1 -6.58813,16.32215 c -0.20108,0.26458 -0.381,0.52916 -0.5715,0.79375 -1.5584,1.52135 -3.06387,3.10091 -4.69106,4.54554 -1.10861,0.98425 -2.38125,1.77535 -3.58511,2.64583 -1.72243,0.81227 -3.39725,1.75948 -5.17525,2.41565 -11.02518,4.07723 -21.50533,2.95804 -31.39281,-3.43959 -0.23812,-0.15081 -0.508,-0.27516 -0.76729,-0.41804 z"
       id="path10"
       style="fill:#4e7289;stroke-width:0.264583" />
    <path
       d="m 232.8827,115.77421 c -0.82021,-0.7567 -1.5875,-1.5875 -2.46591,-2.25954 -1.96057,-1.53193 -3.96875,-2.99243 -5.96107,-4.49791 a 2.7384375,2.7384375 0 0 1 -0.36512,-0.43127 h 37.2745 v 7.18872 z"
       id="path12"
       style="stroke-width:0.264583" />
    <path
       d="m 224.97431,164.33055 c 1.20121,-0.87577 2.4765,-1.66688 3.5851,-2.64584 1.62719,-1.44462 3.13267,-3.02418 4.69106,-4.54554 l 26.9875,0.0159 h 1.12977 v 7.20196 h -36.0336 c -0.11906,-0.005 -0.23812,-0.0185 -0.35983,-0.0265 z"
       id="path14"
       style="stroke-width:0.264583" />
    <path
       d="m 240.4101,140.01269 q 0,-3.60098 0,-7.20195 h 12.52008 v -4.09046 l 7.62794,7.61206 -7.56973,7.51946 v -3.83911 z"
       id="path16"
       style="stroke-width:0.264583" />
    <path
       class="cls-17"
       d="m 204.68606,147.29138 c -2.68817,0 -5.19906,0.15346 -7.67292,-0.045 -2.20927,-0.17727 -3.93964,0.39688 -5.31019,2.11667 a 5.1990624,5.1990624 0 0 1 -0.64558,0.5715 18.277416,18.277416 0 0 1 -4.49792,-8.07244 c -3.50308,-13.94619 7.08025,-24.07708 16.64759,-25.45556 8.80533,-1.27265 16.23483,1.24883 21.69583,8.4455 5.77585,7.60412 4.9239,18.70604 -1.73037,25.57198 -3.302,3.40518 -7.14375,5.7785 -11.90625,6.44525 -4.99798,0.70114 -9.81605,0.0794 -14.47007,-2.38125 z"
       id="path60"
       style="fill:none;stroke-width:0.264583" />
  </g>
</svg>
